<svg width="57" height="26" viewBox="0 0 57 26" fill="none" xmlns="http://www.w3.org/2000/svg">
  <path d="M48.5481 25.493H7.98542C7.59138 25.493 7.24111 25.2376 7.11346 24.8581L1.04983 6.83364C0.885252 6.34226 1.14162 5.80842 1.62323 5.63961C1.77093 5.58854 1.92496 5.57563 2.06791 5.60144C2.40129 5.62133 2.71199 5.8267 2.856 6.16001C3.60558 7.89488 6.27209 13.4957 9.38277 13.4957C9.42128 13.4957 9.46031 13.4946 9.49987 13.4925C11.3762 13.4075 14.3107 11.2006 17.6355 1.1753C17.7627 0.793598 18.1134 0.536621 18.5085 0.536621C18.9042 0.536621 19.255 0.793598 19.3821 1.1753C20.5173 4.59396 24.3221 13.4403 28.2731 13.4403C28.2837 13.4403 28.2937 13.4398 28.3048 13.4398C30.1779 13.4167 33.0581 11.2743 36.1424 1.19627C36.2632 0.803275 36.6192 0.536621 37.0228 0.536621H37.0317C37.439 0.540922 37.795 0.816178 37.9079 1.21455C38.8506 4.52299 42.1939 13.1887 46.2947 13.5505C48.6906 13.7516 51.3471 10.9883 53.9698 5.52994C54.1829 5.08426 54.7009 4.88373 55.1509 5.07458C55.5998 5.26436 55.8277 5.77724 55.6705 6.24711L49.4206 24.8581C49.2925 25.2382 48.9422 25.493 48.5481 25.493ZM8.64374 23.614H47.8888L51.5006 12.8586C49.7551 14.7413 47.9827 15.5811 46.1343 15.423C41.5925 15.0204 38.476 8.35023 37.027 4.42945C34.4676 11.7108 31.6101 15.2789 28.3259 15.3182C28.3079 15.3182 28.2911 15.3193 28.2731 15.3193C23.6833 15.3193 20.1401 8.14809 18.5349 4.19236C15.7961 11.5581 12.8569 15.2203 9.58164 15.3698C7.9026 15.4359 6.44037 14.5833 5.18122 13.3183L8.64374 23.614Z" fill="#A07B50" stroke="#1F1C1D" stroke-width="0.8"/>
</svg>
