<?xml version="1.0" encoding="utf-8"?>
<svg>
  <symbol id="icon-fb" width="7" height="16" viewBox="0 0 7 16" xmlns="http://www.w3.org/2000/svg">
    <path d="M1.51301 3.09869C1.51301 3.5019 1.51301 5.30158 1.51301 5.30158H0V7.99528H1.51301V16H4.62106V7.9955H6.70671C6.70671 7.9955 6.90204 6.70389 6.99672 5.29165C6.72526 5.29165 4.63282 5.29165 4.63282 5.29165C4.63282 5.29165 4.63282 3.72454 4.63282 3.44985C4.63282 3.17458 4.97169 2.80429 5.30662 2.80429C5.64092 2.80429 6.34649 2.80429 7 2.80429C7 2.43754 7 1.17034 7 9.62225e-09C6.12759 9.62225e-09 5.13507 9.62225e-09 4.69758 9.62225e-09C1.43619 -0.000185988 1.51301 2.69619 1.51301 3.09869Z"/>
  </symbol>
  <symbol id="icon-twitter" width="16" height="13" viewBox="0 0 16 13" xmlns="http://www.w3.org/2000/svg">
    <path d="M14.1872 5.33622C15.0858 5.25551 15.6953 4.81075 15.9299 4.20728C15.6058 4.42407 14.5995 4.66042 14.0438 4.43533C14.0166 4.29318 13.9861 4.15816 13.9563 4.03626C13.5328 2.3435 12.083 0.979748 10.5639 1.1445C10.6868 1.09047 10.8115 1.04017 10.9358 0.995016C11.103 0.929813 12.084 0.756034 11.9296 0.379032C11.7994 0.0474297 10.6007 0.629638 10.375 0.705735C10.673 0.583753 11.1657 0.373929 11.2185 0.0012207C10.762 0.0693799 10.314 0.304312 9.96774 0.645918C10.0927 0.499435 10.1876 0.320917 10.2077 0.128791C8.9903 0.975496 8.27916 2.68251 7.70365 4.33838C7.25176 3.86159 6.85123 3.48613 6.49193 3.27764C5.48394 2.68915 4.27872 2.07515 2.38681 1.31054C2.32874 1.99201 2.69638 2.89813 3.75574 3.50071C3.52622 3.46725 3.1065 3.54189 2.77082 3.62941C2.90753 4.4101 3.35399 5.0533 4.56267 5.36433C4.01029 5.40402 3.72483 5.54086 3.46611 5.83581C3.71769 6.37878 4.33158 7.01781 5.43592 6.88663C4.20812 7.46276 4.93529 8.5297 5.93435 8.37058C4.23003 10.2871 1.54298 10.1462 0 8.54327C4.02863 14.5197 12.786 12.0777 14.091 6.32127C15.0688 6.33034 15.6436 5.95253 16 5.536C15.4367 5.64009 14.6201 5.53252 14.1872 5.33622Z" />
  </symbol>
  <symbol id="icon-vk" width="18" height="11" viewBox="0 0 18 11" xmlns="http://www.w3.org/2000/svg">
    <path d="M17.8396 8.92059C17.7912 8.84172 17.4919 8.20854 16.0518 6.90713C14.5442 5.54437 14.7467 5.76565 16.5626 3.40931C17.6685 1.97425 18.1107 1.09787 17.9723 0.723225C17.8407 0.366104 17.0273 0.460313 17.0273 0.460313L14.3226 0.47565C14.3226 0.47565 14.1223 0.449359 13.9727 0.535901C13.8275 0.621347 13.7341 0.81853 13.7341 0.81853C13.7341 0.81853 13.3055 1.92933 12.7339 2.87362C11.529 4.86627 11.0463 4.97144 10.8494 4.84765C10.3915 4.55954 10.5063 3.68865 10.5063 3.07081C10.5063 1.1395 10.8067 0.334335 9.9201 0.126197C9.62533 0.0571822 9.40932 0.0111727 8.65664 0.00350443C7.69132 -0.00635475 6.87338 0.00679081 6.41097 0.226979C6.1027 0.373772 5.86531 0.701316 6.01044 0.719939C6.18933 0.742944 6.59436 0.826199 6.80925 1.11102C7.08715 1.478 7.07702 2.30398 7.07702 2.30398C7.07702 2.30398 7.23678 4.57707 6.70462 4.8597C6.33897 5.0536 5.8383 4.65814 4.76385 2.84952C4.21369 1.92385 3.7974 0.899595 3.7974 0.899595C3.7974 0.899595 3.71752 0.708984 3.57464 0.607106C3.40138 0.483318 3.15836 0.443882 3.15836 0.443882L0.586419 0.459218C0.586419 0.459218 0.200516 0.470173 0.0587555 0.633397C-0.0672538 0.779094 0.0486297 1.07925 0.0486297 1.07925C0.0486297 1.07925 2.06253 5.66596 4.34194 7.97849C6.43347 10.0982 8.8074 9.95909 8.8074 9.95909H9.88298C9.88298 9.95909 10.2081 9.92404 10.3735 9.74986C10.5265 9.58992 10.5209 9.28976 10.5209 9.28976C10.5209 9.28976 10.4995 7.88428 11.1701 7.67724C11.8305 7.47348 12.6788 9.03561 13.5777 9.63702C14.2573 10.0916 14.7737 9.99196 14.7737 9.99196L17.178 9.95909C17.178 9.95909 18.4359 9.88351 17.8396 8.92059Z" />
  </symbol>
</svg>
