<svg width="16" height="13" viewBox="0 0 16 13" fill="none" xmlns="http://www.w3.org/2000/svg">
<path d="M14.1872 5.33622C15.0858 5.25551 15.6953 4.81075 15.9299 4.20728C15.6058 4.42407 14.5995 4.66042 14.0438 4.43533C14.0166 4.29318 13.9861 4.15816 13.9563 4.03626C13.5328 2.3435 12.083 0.979748 10.5639 1.1445C10.6868 1.09047 10.8115 1.04017 10.9358 0.995016C11.103 0.929813 12.084 0.756034 11.9296 0.379032C11.7994 0.0474297 10.6007 0.629638 10.375 0.705735C10.673 0.583753 11.1657 0.373929 11.2185 0.0012207C10.762 0.0693799 10.314 0.304312 9.96774 0.645918C10.0927 0.499435 10.1876 0.320917 10.2077 0.128791C8.9903 0.975496 8.27916 2.68251 7.70365 4.33838C7.25176 3.86159 6.85123 3.48613 6.49193 3.27764C5.48394 2.68915 4.27872 2.07515 2.38681 1.31054C2.32874 1.99201 2.69638 2.89813 3.75574 3.50071C3.52622 3.46725 3.1065 3.54189 2.77082 3.62941C2.90753 4.4101 3.35399 5.0533 4.56267 5.36433C4.01029 5.40402 3.72483 5.54086 3.46611 5.83581C3.71769 6.37878 4.33158 7.01781 5.43592 6.88663C4.20812 7.46276 4.93529 8.5297 5.93435 8.37058C4.23003 10.2871 1.54298 10.1462 0 8.54327C4.02863 14.5197 12.786 12.0777 14.091 6.32127C15.0688 6.33034 15.6436 5.95253 16 5.536C15.4367 5.64009 14.6201 5.53252 14.1872 5.33622Z" fill="#A07B50"/>
</svg>
