<svg width="18" height="11" viewBox="0 0 18 11" fill="none" xmlns="http://www.w3.org/2000/svg">
<path d="M17.8396 8.92059C17.7912 8.84172 17.4919 8.20854 16.0518 6.90713C14.5442 5.54437 14.7467 5.76565 16.5626 3.40931C17.6685 1.97425 18.1107 1.09787 17.9723 0.723225C17.8407 0.366104 17.0273 0.460313 17.0273 0.460313L14.3226 0.47565C14.3226 0.47565 14.1223 0.449359 13.9727 0.535901C13.8275 0.621347 13.7341 0.81853 13.7341 0.81853C13.7341 0.81853 13.3055 1.92933 12.7339 2.87362C11.529 4.86627 11.0463 4.97144 10.8494 4.84765C10.3915 4.55954 10.5063 3.68865 10.5063 3.07081C10.5063 1.1395 10.8067 0.334335 9.9201 0.126197C9.62533 0.0571822 9.40932 0.0111727 8.65664 0.00350443C7.69132 -0.00635475 6.87338 0.00679081 6.41097 0.226979C6.1027 0.373772 5.86531 0.701316 6.01044 0.719939C6.18933 0.742944 6.59436 0.826199 6.80925 1.11102C7.08715 1.478 7.07702 2.30398 7.07702 2.30398C7.07702 2.30398 7.23678 4.57707 6.70462 4.8597C6.33897 5.0536 5.8383 4.65814 4.76385 2.84952C4.21369 1.92385 3.7974 0.899595 3.7974 0.899595C3.7974 0.899595 3.71752 0.708984 3.57464 0.607106C3.40138 0.483318 3.15836 0.443882 3.15836 0.443882L0.586419 0.459218C0.586419 0.459218 0.200516 0.470173 0.0587555 0.633397C-0.0672538 0.779094 0.0486297 1.07925 0.0486297 1.07925C0.0486297 1.07925 2.06253 5.66596 4.34194 7.97849C6.43347 10.0982 8.8074 9.95909 8.8074 9.95909H9.88298C9.88298 9.95909 10.2081 9.92404 10.3735 9.74986C10.5265 9.58992 10.5209 9.28976 10.5209 9.28976C10.5209 9.28976 10.4995 7.88428 11.1701 7.67724C11.8305 7.47348 12.6788 9.03561 13.5777 9.63702C14.2573 10.0916 14.7737 9.99196 14.7737 9.99196L17.178 9.95909C17.178 9.95909 18.4359 9.88351 17.8396 8.92059Z" fill="#A07B50"/>
</svg>
